<?xml version="1.0" encoding="UTF-8"?>
<svg width="40" height="40" viewBox="0 0 40 40" fill="none" xmlns="http://www.w3.org/2000/svg">
  <circle cx="20" cy="20" r="20" fill="#0E192E"/>
  <path d="M14.8 25.75V14.25H19.76C20.9467 14.25 21.84 14.4233 22.44 14.77C23.04 15.11 23.4733 15.57 23.74 16.15C24.0067 16.73 24.14 17.39 24.14 18.13C24.14 19.05 23.9667 19.83 23.62 20.47C23.28 21.1033 22.76 21.5933 22.06 21.94C21.3667 22.2867 20.5 22.46 19.46 22.46H17.46V25.75H14.8ZM17.46 20.46H19.34C20.06 20.46 20.58 20.29 20.9 19.95C21.22 19.61 21.38 19.14 21.38 18.54C21.38 17.98 21.2267 17.55 20.92 17.25C20.6133 16.95 20.1267 16.8 19.46 16.8H17.46V20.46Z" fill="#15BD9A"/>
  <text x="28" y="24" font-size="10" font-family="Arial, sans-serif" fill="#15BD9A" font-weight="bold">G</text>
</svg>
