<?xml version="1.0" encoding="UTF-8"?>
<svg width="24" height="24" viewBox="0 0 24 24" fill="none" xmlns="http://www.w3.org/2000/svg">
  <circle cx="12" cy="12" r="12" fill="#0E192E"/>
  <path d="M8.88 15.45V8.55H11.856C12.568 8.55 13.104 8.654 13.464 8.862C13.824 9.066 14.084 9.342 14.244 9.69C14.404 10.038 14.484 10.434 14.484 10.878C14.484 11.43 14.38 11.898 14.172 12.282C13.968 12.6618 13.656 12.9558 13.236 13.164C12.82 13.3722 12.3 13.476 11.676 13.476H10.476V15.45H8.88ZM10.476 12.276H11.604C12.036 12.276 12.348 12.174 12.54 11.97C12.732 11.766 12.828 11.484 12.828 11.124C12.828 10.788 12.736 10.53 12.552 10.35C12.368 10.17 12.076 10.08 11.676 10.08H10.476V12.276Z" fill="#15BD9A"/>
  <text x="17" y="14.5" font-size="6" font-family="Arial, sans-serif" fill="#15BD9A" font-weight="bold">G</text>
</svg>
